<svg width="30" height="22" viewBox="0 0 30 22" fill="none" xmlns="http://www.w3.org/2000/svg">
<path d="M20.9098 0.58691C20.8305 0.411937 20.7025 0.263515 20.5411 0.159422C20.3797 0.0553289 20.1917 -2.18494e-05 19.9996 1.62651e-07H0.999607C0.807592 0.000152439 0.619677 0.0555613 0.458297 0.159612C0.296918 0.263662 0.168892 0.411959 0.0895051 0.586795C0.0101182 0.761631 -0.0172756 0.955619 0.0105942 1.1456C0.0384641 1.33558 0.12042 1.51353 0.246677 1.6582L6.99961 9.376V18C6.99963 18.1727 7.04434 18.3424 7.12939 18.4926C7.21444 18.6429 7.33693 18.7685 7.48496 18.8574L12.485 21.8574C12.6367 21.9485 12.8099 21.9978 12.9869 22C13.1639 22.0023 13.3383 21.9576 13.4923 21.8704C13.6463 21.7832 13.7745 21.6567 13.8636 21.5038C13.9527 21.3508 13.9997 21.177 13.9996 21V9.376L20.7525 1.6582C20.879 1.51368 20.9611 1.33574 20.989 1.14573C21.0169 0.955708 20.9894 0.761679 20.9098 0.58691ZM12.2467 8.3418C12.0873 8.52403 11.9995 8.75792 11.9996 9V19.2334L8.99961 17.4336V9C8.99969 8.75792 8.9119 8.52403 8.75254 8.3418L3.20371 2H17.7955L12.2467 8.3418ZM22.9996 1C22.9995 0.868657 23.0253 0.738588 23.0756 0.617228C23.1258 0.495869 23.1995 0.3856 23.2923 0.292726C23.3852 0.199853 23.4955 0.126196 23.6168 0.075968C23.7382 0.0257398 23.8683 -7.47669e-05 23.9996 1.62651e-07H28.9996C29.2648 1.62651e-07 29.5192 0.105357 29.7067 0.292894C29.8943 0.48043 29.9996 0.734784 29.9996 1C29.9996 1.26522 29.8943 1.51957 29.7067 1.70711C29.5192 1.89464 29.2648 2 28.9996 2H23.9996C23.8683 2.00008 23.7382 1.97426 23.6168 1.92403C23.4955 1.8738 23.3852 1.80015 23.2923 1.70727C23.1995 1.6144 23.1258 1.50413 23.0756 1.38277C23.0253 1.26141 22.9995 1.13134 22.9996 1ZM29.9996 10C29.9997 10.1313 29.9739 10.2614 29.9236 10.3828C29.8734 10.5041 29.7998 10.6144 29.7069 10.7073C29.614 10.8001 29.5037 10.8738 29.3824 10.924C29.261 10.9743 29.131 11.0001 28.9996 11H18.9996C18.7344 11 18.48 10.8946 18.2925 10.7071C18.105 10.5196 17.9996 10.2652 17.9996 10C17.9996 9.73478 18.105 9.48043 18.2925 9.29289C18.48 9.10536 18.7344 9 18.9996 9H28.9996C29.131 8.99992 29.261 9.02574 29.3824 9.07597C29.5037 9.1262 29.614 9.19985 29.7069 9.29273C29.7998 9.3856 29.8734 9.49587 29.9236 9.61723C29.9739 9.73859 29.9997 9.86866 29.9996 10ZM29.9996 19C29.9997 19.1313 29.9739 19.2614 29.9236 19.3828C29.8734 19.5041 29.7998 19.6144 29.7069 19.7073C29.614 19.8001 29.5037 19.8738 29.3824 19.924C29.261 19.9743 29.131 20.0001 28.9996 20H18.9996C18.7344 20 18.48 19.8946 18.2925 19.7071C18.105 19.5196 17.9996 19.2652 17.9996 19C17.9996 18.7348 18.105 18.4804 18.2925 18.2929C18.48 18.1054 18.7344 18 18.9996 18H28.9996C29.131 17.9999 29.261 18.0257 29.3824 18.076C29.5037 18.1262 29.614 18.1999 29.7069 18.2927C29.7998 18.3856 29.8734 18.4959 29.9236 18.6172C29.9739 18.7386 29.9997 18.8687 29.9996 19Z" fill="white"/>
</svg>
