<svg width="164" height="39" viewBox="0 0 164 39" fill="none" xmlns="http://www.w3.org/2000/svg">
<path d="M31.2749 7.84283C27.4022 7.84283 21.9311 8.16687 19.1352 10.9613C17.9247 12.1718 17.3202 14.1451 17.4771 16.3787C17.4975 16.6737 17.6937 16.9251 17.9756 17.0181C18.256 17.1097 18.5641 17.0239 18.7559 16.7987C20.3108 14.9692 22.2435 13.5029 24.5046 12.4407C24.6964 12.3491 24.9231 12.3418 25.1295 12.4145C25.3111 12.4799 25.4535 12.6034 25.5276 12.7618C25.6816 13.0874 25.6322 13.516 25.1207 13.7572C25.0917 13.7717 25.0655 13.7907 25.0365 13.8037C25.0263 13.8081 25.0147 13.8067 25.006 13.811C19.4346 16.4296 16.6954 20.9984 15.4514 25.6964C14.5446 19.814 12.6294 16.3511 10.8202 14.2252C9.51095 12.5279 8.22341 11.6284 7.47943 11.1198C7.34136 11.0253 6.92435 10.7405 6.7514 10.5676C6.46803 10.2842 6.46803 9.82354 6.7514 9.54017C7.03477 9.25823 7.49687 9.25823 7.81218 9.57212C7.88923 9.64044 8.01272 9.72763 8.16966 9.83226L8.29902 9.91945C9.35108 10.6402 11.31 11.9786 13.0479 14.8602C13.2034 15.1174 13.5042 15.2554 13.7963 15.2002C14.0928 15.1479 14.3252 14.9198 14.3834 14.6248C14.7627 12.6877 14.5927 9.81332 12.8649 8.08553C10.069 5.29254 4.59789 4.96851 0.726671 4.96851C0.32553 4.96844 0 5.29397 0 5.69504C0 9.56769 0.324032 15.0388 3.11846 17.8348C4.28387 19.0002 6.08147 19.5233 7.86736 19.5233C9.32486 19.5233 10.7533 19.1585 11.8476 18.5264C13.3399 21.6187 14.5316 26.2383 14.5316 33.3051C14.5316 33.7061 14.8571 34.0317 15.2582 34.0317C15.6592 34.0317 15.9848 33.7061 15.9848 33.3051C15.9848 29.3627 16.6605 24.6311 19.173 20.7367C20.18 21.7205 21.9137 22.3439 23.8347 22.402C23.9306 22.4049 24.0251 22.4064 24.1195 22.4064C26.0711 22.4064 27.796 21.7946 28.8815 20.7076C31.6773 17.9117 31.9999 12.4406 31.9999 8.56787C32.0015 8.16687 31.6774 7.84283 31.2749 7.84283Z" fill="#446354"/>
<path d="M54.248 24.288H45.148L43.354 28.5H39.87L48.06 10.3H51.388L59.604 28.5H56.068L54.248 24.288ZM53.13 21.636L49.698 13.68L46.292 21.636H53.13ZM74.4797 14.616V26.394C74.4797 31.282 71.9837 33.726 66.9917 33.726C65.657 33.726 64.3917 33.5527 63.1957 33.206C61.9997 32.8767 61.0117 32.3913 60.2317 31.75L61.6877 29.306C62.2943 29.8087 63.057 30.2073 63.9757 30.502C64.9117 30.814 65.8563 30.97 66.8097 30.97C68.335 30.97 69.453 30.6233 70.1637 29.93C70.8743 29.2367 71.2297 28.1793 71.2297 26.758V26.03C70.675 26.6367 69.999 27.096 69.2017 27.408C68.4043 27.72 67.529 27.876 66.5757 27.876C65.2583 27.876 64.0623 27.5987 62.9877 27.044C61.9303 26.472 61.0897 25.6747 60.4657 24.652C59.859 23.6293 59.5557 22.4593 59.5557 21.142C59.5557 19.8247 59.859 18.6633 60.4657 17.658C61.0897 16.6353 61.9303 15.8467 62.9877 15.292C64.0623 14.7373 65.2583 14.46 66.5757 14.46C67.581 14.46 68.491 14.6247 69.3057 14.954C70.1377 15.2833 70.831 15.786 71.3857 16.462V14.616H74.4797ZM67.0697 25.12C68.3003 25.12 69.3057 24.756 70.0857 24.028C70.883 23.2827 71.2817 22.3207 71.2817 21.142C71.2817 19.9807 70.883 19.036 70.0857 18.308C69.3057 17.58 68.3003 17.216 67.0697 17.216C65.8217 17.216 64.799 17.58 64.0017 18.308C63.2217 19.036 62.8317 19.9807 62.8317 21.142C62.8317 22.3207 63.2217 23.2827 64.0017 24.028C64.799 24.756 65.8217 25.12 67.0697 25.12ZM81.0664 16.644C82.0024 15.188 83.6491 14.46 86.0064 14.46V17.554C85.7291 17.502 85.4777 17.476 85.2524 17.476C83.9871 17.476 82.9991 17.8487 82.2884 18.594C81.5777 19.322 81.2224 20.3793 81.2224 21.766V28.5H77.9724V14.616H81.0664V16.644ZM94.0965 28.682C92.6925 28.682 91.4271 28.3787 90.3005 27.772C89.1738 27.1653 88.2898 26.3247 87.6485 25.25C87.0245 24.158 86.7125 22.9273 86.7125 21.558C86.7125 20.1887 87.0245 18.9667 87.6485 17.892C88.2898 16.8173 89.1738 15.9767 90.3005 15.37C91.4271 14.7633 92.6925 14.46 94.0965 14.46C95.5178 14.46 96.7918 14.7633 97.9185 15.37C99.0451 15.9767 99.9205 16.8173 100.544 17.892C101.186 18.9667 101.506 20.1887 101.506 21.558C101.506 22.9273 101.186 24.158 100.544 25.25C99.9205 26.3247 99.0451 27.1653 97.9185 27.772C96.7918 28.3787 95.5178 28.682 94.0965 28.682ZM94.0965 25.9C95.2925 25.9 96.2805 25.5013 97.0605 24.704C97.8405 23.9067 98.2305 22.858 98.2305 21.558C98.2305 20.258 97.8405 19.2093 97.0605 18.412C96.2805 17.6147 95.2925 17.216 94.0965 17.216C92.9005 17.216 91.9125 17.6147 91.1325 18.412C90.3698 19.2093 89.9885 20.258 89.9885 21.558C89.9885 22.858 90.3698 23.9067 91.1325 24.704C91.9125 25.5013 92.9005 25.9 94.0965 25.9ZM111.591 28.76C109.078 28.76 107.119 28.058 105.715 26.654C104.311 25.2327 103.609 23.2047 103.609 20.57V10.3H106.989V20.44C106.989 24.0107 108.532 25.796 111.617 25.796C114.685 25.796 116.219 24.0107 116.219 20.44V10.3H119.547V20.57C119.547 23.2047 118.845 25.2327 117.441 26.654C116.055 28.058 114.105 28.76 111.591 28.76ZM134.031 25.9V28.5H122.045V26.446L129.663 17.216H122.201V14.616H133.823V16.67L126.179 25.9H134.031ZM149.096 21.636C149.096 21.8613 149.078 22.182 149.044 22.598H138.15C138.34 23.6207 138.834 24.4353 139.632 25.042C140.446 25.6313 141.452 25.926 142.648 25.926C144.173 25.926 145.43 25.4233 146.418 24.418L148.16 26.42C147.536 27.1653 146.747 27.7287 145.794 28.11C144.84 28.4913 143.766 28.682 142.57 28.682C141.044 28.682 139.701 28.3787 138.54 27.772C137.378 27.1653 136.477 26.3247 135.836 25.25C135.212 24.158 134.9 22.9273 134.9 21.558C134.9 20.206 135.203 18.9927 135.81 17.918C136.434 16.826 137.292 15.9767 138.384 15.37C139.476 14.7633 140.706 14.46 142.076 14.46C143.428 14.46 144.632 14.7633 145.69 15.37C146.764 15.9593 147.596 16.8 148.186 17.892C148.792 18.9667 149.096 20.2147 149.096 21.636ZM142.076 17.06C141.036 17.06 140.152 17.372 139.424 17.996C138.713 18.6027 138.28 19.4173 138.124 20.44H146.002C145.863 19.4347 145.438 18.62 144.728 17.996C144.017 17.372 143.133 17.06 142.076 17.06ZM159.897 28.5L156.335 23.69L152.747 28.5H149.159L154.567 21.454L149.393 14.616H153.007L156.413 19.166L159.819 14.616H163.329L158.129 21.402L163.563 28.5H159.897Z" fill="#002603"/>
</svg>
