<svg width="183" height="39" viewBox="0 0 183 39" fill="none" xmlns="http://www.w3.org/2000/svg">
<path d="M31.2749 7.3428C27.4022 7.3428 21.9311 7.66684 19.1352 10.4613C17.9247 11.6718 17.3202 13.6451 17.4771 15.8787C17.4975 16.1737 17.6937 16.425 17.9756 16.5181C18.256 16.6096 18.5641 16.5239 18.7559 16.2987C20.3108 14.4691 22.2435 13.0029 24.5046 11.9406C24.6964 11.8491 24.9231 11.8418 25.1295 11.9145C25.3111 11.9799 25.4535 12.1034 25.5276 12.2618C25.6816 12.5873 25.6322 13.016 25.1207 13.2572C25.0917 13.2717 25.0655 13.2906 25.0365 13.3037C25.0263 13.3081 25.0147 13.3066 25.006 13.311C19.4346 15.9296 16.6954 20.4984 15.4514 25.1964C14.5446 19.314 12.6294 15.8511 10.8202 13.7252C9.51095 12.0279 8.22341 11.1283 7.47943 10.6198C7.34136 10.5253 6.92435 10.2405 6.7514 10.0675C6.46803 9.78418 6.46803 9.32351 6.7514 9.04014C7.03477 8.7582 7.49687 8.7582 7.81218 9.07209C7.88923 9.14041 8.01272 9.2276 8.16966 9.33222L8.29902 9.41941C9.35108 10.1402 11.31 11.4785 13.0479 14.3601C13.2034 14.6173 13.5042 14.7554 13.7963 14.7002C14.0928 14.6479 14.3252 14.4197 14.3834 14.1247C14.7627 12.1877 14.5927 9.31329 12.8649 7.5855C10.069 4.79251 4.59789 4.46848 0.726671 4.46848C0.32553 4.46841 0 4.79394 0 5.19501C0 9.06766 0.324032 14.5388 3.11846 17.3347C4.28387 18.5001 6.08147 19.0233 7.86736 19.0233C9.32486 19.0233 10.7533 18.6585 11.8476 18.0264C13.3399 21.1187 14.5316 25.7383 14.5316 32.805C14.5316 33.2061 14.8571 33.5316 15.2582 33.5316C15.6592 33.5316 15.9848 33.2061 15.9848 32.805C15.9848 28.8626 16.6605 24.1311 19.173 20.2366C20.18 21.2205 21.9137 21.8439 23.8347 21.902C23.9306 21.9049 24.0251 21.9063 24.1195 21.9063C26.0711 21.9063 27.796 21.2946 28.8815 20.2076C31.6773 17.4117 31.9999 11.9406 31.9999 8.06784C32.0015 7.66684 31.6774 7.3428 31.2749 7.3428Z" fill="#446354"/>
<path d="M55.808 25.456H46.496L44.896 30H41.088L49.056 7.728H53.28L61.248 30H57.408L55.808 25.456ZM54.784 22.48L51.168 12.144L47.52 22.48H54.784ZM70.8565 12.08C72.2218 12.08 73.4272 12.3573 74.4725 12.912C75.5392 13.4453 76.3712 14.1173 76.9685 14.928V12.368H80.6485V30.288C80.6485 31.9093 80.3072 33.3493 79.6245 34.608C78.9418 35.888 77.9498 36.8907 76.6485 37.616C75.3685 38.3413 73.8325 38.704 72.0405 38.704C69.6512 38.704 67.6672 38.1387 66.0885 37.008C64.5098 35.8987 63.6138 34.384 63.4005 32.464H67.0165C67.2938 33.3813 67.8805 34.1173 68.7765 34.672C69.6938 35.248 70.7818 35.536 72.0405 35.536C73.5125 35.536 74.6965 35.088 75.5925 34.192C76.5098 33.296 76.9685 31.9947 76.9685 30.288V27.344C76.3498 28.176 75.5072 28.88 74.4405 29.456C73.3952 30.0107 72.2005 30.288 70.8565 30.288C69.3205 30.288 67.9125 29.904 66.6325 29.136C65.3738 28.3467 64.3712 27.2587 63.6245 25.872C62.8992 24.464 62.5365 22.8747 62.5365 21.104C62.5365 19.3333 62.8992 17.7653 63.6245 16.4C64.3712 15.0347 65.3738 13.9787 66.6325 13.232C67.9125 12.464 69.3205 12.08 70.8565 12.08ZM76.9685 21.168C76.9685 19.952 76.7125 18.896 76.2005 18C75.7098 17.104 75.0592 16.4213 74.2485 15.952C73.4378 15.4827 72.5632 15.248 71.6245 15.248C70.6858 15.248 69.8112 15.4827 69.0005 15.952C68.1898 16.4 67.5285 17.072 67.0165 17.968C66.5258 18.8427 66.2805 19.888 66.2805 21.104C66.2805 22.32 66.5258 23.3867 67.0165 24.304C67.5285 25.2213 68.1898 25.9253 69.0005 26.416C69.8325 26.8853 70.7072 27.12 71.6245 27.12C72.5632 27.12 73.4378 26.8853 74.2485 26.416C75.0592 25.9467 75.7098 25.264 76.2005 24.368C76.7125 23.4507 76.9685 22.384 76.9685 21.168ZM88.128 14.928C88.6613 14.032 89.3653 13.3387 90.24 12.848C91.136 12.336 92.192 12.08 93.408 12.08V15.856H92.48C91.0507 15.856 89.9627 16.2187 89.216 16.944C88.4907 17.6693 88.128 18.928 88.128 20.72V30H84.48V12.368H88.128V14.928ZM103.449 30.288C101.785 30.288 100.281 29.9147 98.9372 29.168C97.5932 28.4 96.5372 27.3333 95.7692 25.968C95.0012 24.5813 94.6172 22.9813 94.6172 21.168C94.6172 19.376 95.0119 17.7867 95.8012 16.4C96.5906 15.0133 97.6679 13.9467 99.0332 13.2C100.399 12.4533 101.924 12.08 103.609 12.08C105.295 12.08 106.82 12.4533 108.185 13.2C109.551 13.9467 110.628 15.0133 111.417 16.4C112.207 17.7867 112.601 19.376 112.601 21.168C112.601 22.96 112.196 24.5493 111.385 25.936C110.575 27.3227 109.465 28.4 108.057 29.168C106.671 29.9147 105.135 30.288 103.449 30.288ZM103.449 27.12C104.388 27.12 105.263 26.896 106.073 26.448C106.905 26 107.577 25.328 108.089 24.432C108.601 23.536 108.857 22.448 108.857 21.168C108.857 19.888 108.612 18.8107 108.121 17.936C107.631 17.04 106.98 16.368 106.169 15.92C105.359 15.472 104.484 15.248 103.545 15.248C102.607 15.248 101.732 15.472 100.921 15.92C100.132 16.368 99.5026 17.04 99.0332 17.936C98.5639 18.8107 98.3292 19.888 98.3292 21.168C98.3292 23.0667 98.8092 24.5387 99.7692 25.584C100.751 26.608 101.977 27.12 103.449 27.12ZM118.864 7.76V21.936C118.864 23.6213 119.301 24.8907 120.176 25.744C121.072 26.5973 122.309 27.024 123.888 27.024C125.488 27.024 126.725 26.5973 127.6 25.744C128.496 24.8907 128.944 23.6213 128.944 21.936V7.76H132.592V21.872C132.592 23.6853 132.197 25.2213 131.408 26.48C130.618 27.7387 129.562 28.6773 128.24 29.296C126.917 29.9147 125.456 30.224 123.856 30.224C122.256 30.224 120.794 29.9147 119.472 29.296C118.17 28.6773 117.136 27.7387 116.368 26.48C115.6 25.2213 115.216 23.6853 115.216 21.872V7.76H118.864ZM139.613 27.024H147.613V30H135.389V27.024L143.421 15.344H135.389V12.368H147.613V15.344L139.613 27.024ZM166.644 20.752C166.644 21.4133 166.601 22.0107 166.516 22.544H153.044C153.15 23.952 153.673 25.0827 154.612 25.936C155.55 26.7893 156.702 27.216 158.068 27.216C160.03 27.216 161.417 26.3947 162.228 24.752H166.164C165.63 26.3733 164.66 27.7067 163.252 28.752C161.865 29.776 160.137 30.288 158.068 30.288C156.382 30.288 154.868 29.9147 153.524 29.168C152.201 28.4 151.156 27.3333 150.388 25.968C149.641 24.5813 149.268 22.9813 149.268 21.168C149.268 19.3547 149.63 17.7653 150.356 16.4C151.102 15.0133 152.137 13.9467 153.46 13.2C154.804 12.4533 156.34 12.08 158.068 12.08C159.732 12.08 161.214 12.4427 162.516 13.168C163.817 13.8933 164.83 14.9173 165.556 16.24C166.281 17.5413 166.644 19.0453 166.644 20.752ZM162.836 19.6C162.814 18.256 162.334 17.1787 161.396 16.368C160.457 15.5573 159.294 15.152 157.908 15.152C156.649 15.152 155.572 15.5573 154.676 16.368C153.78 17.1573 153.246 18.2347 153.076 19.6H162.836ZM176.826 21.072L182.522 30H178.394L174.586 24.016L171.002 30H167.194L172.89 21.328L167.194 12.368H171.322L175.13 18.352L178.714 12.368H182.522L176.826 21.072Z" fill="white"/>
</svg>
