<svg width="16.000000" height="8.000000" viewBox="0 0 16 8" fill="none" xmlns="http://www.w3.org/2000/svg" xmlns:xlink="http://www.w3.org/1999/xlink">
	<desc>
			Created with Pixso.
	</desc>
	<defs/>
	<path id="Vector" d="M8.11 7.99C8.29 7.96 8.45 7.88 8.58 7.76L15.69 0.93C15.78 0.86 15.85 0.76 15.91 0.66C15.96 0.56 15.99 0.44 15.99 0.33C16 0.21 15.98 0.09 15.94 -0.02C15.9 -0.12 15.84 -0.22 15.76 -0.31C15.68 -0.39 15.58 -0.46 15.48 -0.51C15.37 -0.55 15.26 -0.58 15.14 -0.57C15.02 -0.57 14.91 -0.55 14.8 -0.5C14.69 -0.46 14.6 -0.39 14.52 -0.3L8 5.96L1.47 -0.3C1.39 -0.39 1.3 -0.46 1.19 -0.5C1.08 -0.55 0.97 -0.57 0.85 -0.57C0.73 -0.58 0.62 -0.55 0.51 -0.51C0.41 -0.46 0.31 -0.39 0.23 -0.31C0.15 -0.22 0.09 -0.12 0.05 -0.02C0.01 0.09 -0.01 0.21 0 0.33C0 0.44 0.03 0.56 0.08 0.66C0.14 0.76 0.21 0.86 0.3 0.93L7.41 7.76C7.5 7.85 7.61 7.91 7.73 7.95C7.85 7.99 7.98 8 8.11 7.99Z" fill="#000000" fill-opacity="0.400000" fill-rule="nonzero"/>
</svg>
