<svg width="16.000000" height="16.000000" viewBox="0 0 16 16" fill="#ccc"
    xmlns="http://www.w3.org/2000/svg"
    xmlns:xlink="http://www.w3.org/1999/xlink">
    <desc>
			Created with Pixso.
    </desc>
    <defs/>
    <path id="Vector" d="M7.51 8.2C9.76 8.2 11.58 6.36 11.58 4.1C11.58 1.83 9.76 0 7.51 0C5.27 0 3.45 1.83 3.45 4.1C3.45 6.36 5.27 8.2 7.51 8.2ZM0 15.58L0 14.97C0 12.02 2.36 9.64 5.28 9.64L9.95 9.64C12.87 9.64 15.23 12.02 15.23 14.97L15.23 15.58C15.23 15.81 15.05 16 14.83 16L0.4 16C0.18 16 0 15.81 0 15.58Z" fill="#FFFFFF" fill-opacity="1.000000" fill-rule="evenodd"/>
</svg>
